<svg class="main-svg" xmlns="http://www.w3.org/2000/svg" xmlns:xlink="http://www.w3.org/1999/xlink" width="808" height="530" style=""><rect x="0" y="0" width="808" height="530" style="fill: rgb(255, 255, 255); fill-opacity: 1;"/><defs id="defs-066a05"><g class="clips"><clipPath id="clip066a05xyplot" class="plotclip"><rect width="287.84999999999997" height="399"/></clipPath><clipPath id="clip066a05xy2plot" class="plotclip"><rect width="287.84999999999997" height="399"/></clipPath><clipPath id="clip066a05xy3plot" class="plotclip"><rect width="287.84999999999997" height="399"/></clipPath><clipPath id="clip066a05xy4plot" class="plotclip"><rect width="287.84999999999997" height="399"/></clipPath><clipPath id="clip066a05xy5plot" class="plotclip"><rect width="287.84999999999997" height="399"/></clipPath><clipPath id="clip066a05xy6plot" class="plotclip"><rect width="287.84999999999997" height="399"/></clipPath><clipPath id="clip066a05xy7plot" class="plotclip"><rect width="287.84999999999997" height="399"/></clipPath><clipPath id="clip066a05xy8plot" class="plotclip"><rect width="287.84999999999997" height="399"/></clipPath><clipPath id="clip066a05xy9plot" class="plotclip"><rect width="287.84999999999997" height="399"/></clipPath><clipPath class="axesclip" id="clip066a05x"><rect x="267.15000000000003" y="0" width="287.84999999999997" height="530"/></clipPath><clipPath class="axesclip" id="clip066a05y"><rect x="0" y="60" width="808" height="399"/></clipPath><clipPath class="axesclip" id="clip066a05xy"><rect x="267.15000000000003" y="60" width="287.84999999999997" height="399"/></clipPath><clipPath class="axesclip" id="clip066a05y2"><rect x="0" y="60" width="808" height="399"/></clipPath><clipPath class="axesclip" id="clip066a05xy2"><rect x="267.15000000000003" y="60" width="287.84999999999997" height="399"/></clipPath><clipPath class="axesclip" id="clip066a05y3"><rect x="0" y="60" width="808" height="399"/></clipPath><clipPath class="axesclip" id="clip066a05xy3"><rect x="267.15000000000003" y="60" width="287.84999999999997" height="399"/></clipPath><clipPath class="axesclip" id="clip066a05y4"><rect x="0" y="60" width="808" height="399"/></clipPath><clipPath class="axesclip" id="clip066a05xy4"><rect x="267.15000000000003" y="60" width="287.84999999999997" height="399"/></clipPath><clipPath class="axesclip" id="clip066a05y5"><rect x="0" y="60" width="808" height="399"/></clipPath><clipPath class="axesclip" id="clip066a05xy5"><rect x="267.15000000000003" y="60" width="287.84999999999997" height="399"/></clipPath><clipPath class="axesclip" id="clip066a05y6"><rect x="0" y="60" width="808" height="399"/></clipPath><clipPath class="axesclip" id="clip066a05xy6"><rect x="267.15000000000003" y="60" width="287.84999999999997" height="399"/></clipPath><clipPath class="axesclip" id="clip066a05y7"><rect x="0" y="60" width="808" height="399"/></clipPath><clipPath class="axesclip" id="clip066a05xy7"><rect x="267.15000000000003" y="60" width="287.84999999999997" height="399"/></clipPath><clipPath class="axesclip" id="clip066a05y8"><rect x="0" y="60" width="808" height="399"/></clipPath><clipPath class="axesclip" id="clip066a05xy8"><rect x="267.15000000000003" y="60" width="287.84999999999997" height="399"/></clipPath><clipPath class="axesclip" id="clip066a05y9"><rect x="0" y="60" width="808" height="399"/></clipPath><clipPath class="axesclip" id="clip066a05xy9"><rect x="267.15000000000003" y="60" width="287.84999999999997" height="399"/></clipPath></g><g class="gradients"/><g class="patterns"/></defs><g class="bglayer"><rect class="bg" x="267.15000000000003" y="60" width="287.84999999999997" height="399" style="fill: rgb(238, 238, 238); fill-opacity: 1; stroke-width: 0;"/></g><g class="layer-below"><g class="imagelayer"/><g class="shapelayer"/></g><g class="cartesianlayer"><g class="subplot xy"><g class="layer-subplot"><g class="shapelayer"/><g class="imagelayer"/></g><g class="gridlayer"><g class="x"><path class="xgrid crisp" transform="translate(315.12,0)" d="M0,60v399" style="stroke: rgb(255, 255, 255); stroke-opacity: 1; stroke-width: 1px;"/><path class="xgrid crisp" transform="translate(435.06000000000006,0)" d="M0,60v399" style="stroke: rgb(255, 255, 255); stroke-opacity: 1; stroke-width: 1px;"/></g><g class="y"/><g class="y2"/><g class="y3"/><g class="y4"/><g class="y5"/><g class="y6"/><g class="y7"/><g class="y8"/><g class="y9"/></g><g class="zerolinelayer"><path class="yzl zl crisp" transform="translate(0,459)" d="M267.15000000000003,0h287.84999999999997" style="stroke: rgb(255, 255, 255); stroke-opacity: 1; stroke-width: 2px;"/><path class="y2zl zl crisp" transform="translate(0,459)" d="M267.15000000000003,0h287.84999999999997" style="stroke: rgb(255, 255, 255); stroke-opacity: 1; stroke-width: 2px;"/><path class="y3zl zl crisp" transform="translate(0,459)" d="M267.15000000000003,0h287.84999999999997" style="stroke: rgb(255, 255, 255); stroke-opacity: 1; stroke-width: 2px;"/><path class="y4zl zl crisp" transform="translate(0,459)" d="M267.15000000000003,0h287.84999999999997" style="stroke: rgb(255, 255, 255); stroke-opacity: 1; stroke-width: 2px;"/><path class="y5zl zl crisp" transform="translate(0,459)" d="M267.15000000000003,0h287.84999999999997" style="stroke: rgb(255, 255, 255); stroke-opacity: 1; stroke-width: 2px;"/><path class="y6zl zl crisp" transform="translate(0,459)" d="M267.15000000000003,0h287.84999999999997" style="stroke: rgb(255, 255, 255); stroke-opacity: 1; stroke-width: 2px;"/><path class="y7zl zl crisp" transform="translate(0,459)" d="M267.15000000000003,0h287.84999999999997" style="stroke: rgb(255, 255, 255); stroke-opacity: 1; stroke-width: 2px;"/><path class="y8zl zl crisp" transform="translate(0,459)" d="M267.15000000000003,0h287.84999999999997" style="stroke: rgb(255, 255, 255); stroke-opacity: 1; stroke-width: 2px;"/><path class="y9zl zl crisp" transform="translate(0,459)" d="M267.15000000000003,0h287.84999999999997" style="stroke: rgb(255, 255, 255); stroke-opacity: 1; stroke-width: 2px;"/></g><path class="xlines-below"/><path class="ylines-below"/><g class="overlines-below"><path class="xy2-x"/><path class="xy2-y"/><path class="xy3-x"/><path class="xy3-y"/><path class="xy4-x"/><path class="xy4-y"/><path class="xy5-x"/><path class="xy5-y"/><path class="xy6-x"/><path class="xy6-y"/><path class="xy7-x"/><path class="xy7-y"/><path class="xy8-x"/><path class="xy8-y"/><path class="xy9-x"/><path class="xy9-y"/></g><g class="xaxislayer-below"/><g class="yaxislayer-below"/><g class="overaxes-below"><g class="xy2-x"/><g class="xy2-y"/><g class="xy3-x"/><g class="xy3-y"/><g class="xy4-x"/><g class="xy4-y"/><g class="xy5-x"/><g class="xy5-y"/><g class="xy6-x"/><g class="xy6-y"/><g class="xy7-x"/><g class="xy7-y"/><g class="xy8-x"/><g class="xy8-y"/><g class="xy9-x"/><g class="xy9-y"/></g><g class="plot" transform="translate(267.15000000000003,60)" clip-path="url(#clip066a05xyplot)"><g class="scatterlayer mlayer"><g class="trace scatter traceb9b8b2" style="stroke-miterlimit: 2; opacity: 1;"><g class="fills"/><g class="errorbars"/><g class="lines"><path class="js-line" d="M0,222.64L10.98,209.57L11.02,209.52L23.28,192.72L23.31,192.66L31.6,180.37L31.63,180.31L41.87,164.51L41.9,164.45L51.72,149.24L51.76,149.18L67.05,126.92L67.09,126.87L83.24,106.1L83.28,106.05L96.77,91.25L96.81,91.22L105.13,83.25L105.17,83.22L114.69,75.36L114.73,75.33L126.42,67.67L126.46,67.65L134.48,63.71L134.52,63.7L144.52,60.49L144.56,60.48L151.87,59.3L151.91,59.3L162.63,59.3L162.67,59.31L170.54,60.58L170.57,60.59L185.12,65.16L185.15,65.18L195.91,70.28L195.95,70.3L207.3,77.2L207.34,77.23L219.26,86.07L219.3,86.1L232.12,97.3L232.15,97.34L239.35,104.31L239.39,104.35L256.14,122.15L256.18,122.2L272.45,141.05L272.48,141.1L281.52,151.99L281.55,152.04L287.85,159.74" style="vector-effect: non-scaling-stroke; fill: none; stroke: rgb(31, 119, 180); stroke-opacity: 1; stroke-width: 2px; opacity: 1;"/></g><g class="points"/><g class="text"/></g></g></g><g class="overplot"><g class="xy2" transform="translate(267.15000000000003,60)" clip-path="url(#clip066a05xy2plot)"><g class="scatterlayer mlayer"><g class="trace scatter tracec96479" style="stroke-miterlimit: 2; opacity: 1;"><g class="fills"/><g class="errorbars"/><g class="lines"><path class="js-line" d="M0,287.22L2.1,279.67L2.14,279.6L4.2,277.14L4.24,277.11L6,274.33L6.03,274.23L7.57,268.4L7.61,268.22L10.08,252.91L10.12,252.65L15.07,224.62L15.1,224.51L17.8,219.24L17.84,219.21L19.79,218.51L19.83,218.52L21.7,219.65L21.74,219.68L26.01,222.66L26.05,222.68L29.01,223.07L29.05,223.06L30.55,221.7L30.58,221.64L31.93,217.59L31.97,217.44L33.88,206.71L33.92,206.46L38.64,178.81L38.68,178.73L40.07,177.72L40.1,177.74L40.14,177.75L41.6,179.24L41.64,179.29L47.79,188.46L47.83,188.55L53.56,202.24L53.6,202.27L55.13,202.4L55.17,202.37L56.3,200.56L56.33,200.47L57.87,194.62L57.91,194.44L63.94,159.99L63.98,159.92L65.07,159.39L65.14,159.44L65.18,159.48L66.42,161.73L66.45,161.82L74.55,181.59L74.59,181.74L79.68,203.38L79.72,203.46L81.63,205.5L81.67,205.49L82.72,204.37L82.76,204.3L84.37,199.46L84.41,199.31L89.43,176.53L89.47,176.48L90.52,176.2L90.55,176.24L90.59,176.27L91.68,178.8L91.71,178.94L93.93,188.69L93.96,188.87L98.42,205.61L98.46,205.74L100.71,215.91L100.75,216.12L101.65,217.16L101.68,217.2L103.71,217.88L103.75,217.88L105.02,216.88L105.06,216.82L106.78,212.58L106.82,212.46L108.92,202.64L108.96,202.41L116.6,150.37L116.64,150.3L117.61,149.59L117.76,149.67L117.8,149.7L119.08,151.68L119.11,151.76L122.37,157.23L122.41,157.24L125.67,158.33L125.71,158.39L127.25,162.72L127.28,162.87L132.42,180.61L132.46,180.65L134.22,181.48L134.26,181.49L136.43,181.02L136.47,180.98L137.89,178.33L137.93,178.22L139.91,169.26L139.95,169.04L143.85,149.82L143.89,149.77L144.79,149.65L144.9,149.77L144.94,149.81L146.29,152.85L146.32,152.96L149.28,158.99L149.32,159.02L152.85,160.7L152.88,160.78L154.38,165.17L154.42,165.32L157.83,176.01L157.87,176.04L158.92,175.81L158.95,175.77L160.04,173.41L160.08,173.29L163.15,160.66L163.19,160.5L169.71,136.18L169.75,136.14L170.72,136.32L170.76,136.37L172.11,139.28L172.15,139.39L175.75,148.27L175.78,148.3L177.96,148.97L177.99,148.99L179.61,150.54L179.64,150.6L182.98,155.73L183.09,155.63L183.13,155.59L184.1,153.18L184.14,153.03L185.53,144.91L185.57,144.63L189.01,118.65L189.05,118.48L190.7,114.67L190.74,114.66L192.09,115.05L192.12,115.08L194.3,115.53L194.34,115.5L197.48,114.06L197.52,114.1L198.8,116.42L198.83,116.52L203.03,126.93L203.07,126.92L204.08,126L204.12,125.93L205.51,122.07L205.54,121.93L208.58,107.66L208.62,107.46L214.2,75.26L214.24,75.14L215.59,73.28L215.63,73.3L216.64,74.75L216.67,74.83L220.61,82.97L220.65,82.97L222.07,82.05L222.11,82.01L223.8,81.53L223.83,81.55L225.15,83.44L225.18,83.53L227.88,88.86L228.07,88.73L228.11,88.69L228.97,86.42L229.01,86.26L230.84,72.57L230.88,72.2L235.11,36.66L235.15,36.58L236.39,35.73L236.43,35.74L238.98,36.15L239.01,36.11L240.36,33.42L240.4,33.33L242.57,29.37L242.61,29.36L243.55,30.16L243.59,30.24L245.12,35.23L245.16,35.39L247.97,43.93L248.01,43.94L248.83,43.31L248.87,43.24L250.03,39.71L250.07,39.54L251.91,29.17L251.94,28.93L256.22,0L256.25,-0.31L261.2,-29.9L261.24,-29.89L262.51,-27.71L262.55,-27.6L265.7,-20.5L265.92,-20.64L265.96,-20.67L267.61,-24.24L267.65,-24.34L269.75,-27.5L270.01,-27.33L270.05,-27.29L271.66,-23.33L271.7,-23.2L273.23,-20.01L273.61,-20.41L273.64,-20.49L274.73,-25.71L274.77,-25.99L277.24,-58.28L277.28,-58.89L281.22,-95.72L282.12,-94.61L282.15,-94.54L283.88,-92.45L284.1,-92.68L284.14,-92.74L286.31,-103.04L286.35,-103.29L287.85,-111.94" style="vector-effect: non-scaling-stroke; fill: none; stroke: rgb(255, 127, 14); stroke-opacity: 1; stroke-width: 2px; opacity: 1;"/></g><g class="points"/><g class="text"/></g></g></g><g class="xy3" transform="translate(267.15000000000003,60)" clip-path="url(#clip066a05xy3plot)"><g class="scatterlayer mlayer"><g class="trace scatter tracecdc760" style="stroke-miterlimit: 2; opacity: 1;"><g class="fills"/><g class="errorbars"/><g class="lines"><path class="js-line" d="M0,356.74L7.8,352.48L7.83,352.43L12.63,348.25L12.67,348.25L18.4,347.61L18.44,347.59L26.27,342.98L26.31,342.94L30.51,339.45L30.55,339.43L38.42,335.31L38.45,335.32L43.48,335.91L43.51,335.89L47.23,333.07L47.26,333.04L53.93,328.15L53.97,328.1L58.17,324.28L58.21,324.26L64.09,321.97L64.13,321.97L67.05,322.72L67.09,322.74L69.34,322.73L69.38,322.71L71.36,320.81L71.4,320.76L75.11,316.93L75.15,316.92L78.9,314.49L78.93,314.44L81.89,309.54L81.93,309.48L84.33,307.31L84.37,307.29L92.09,305L92.13,305.02L95.69,306.09L95.73,306.07L97.34,304.11L97.37,304.05L101.46,298.43L101.5,298.42L104.53,296.8L104.57,296.75L106.71,292.07L106.74,291.97L109.59,287.04L109.63,287.01L111.73,286.84L111.77,286.84L113.64,286.09L113.68,286.06L117.28,283.75L117.31,283.76L119.04,285.25L119.08,285.3L121.36,286.85L121.4,286.83L122.64,285.43L122.67,285.36L125.45,278.56L125.48,278.49L127.32,276.56L127.36,276.55L130.62,276.14L130.66,276.08L132.19,272.38L132.23,272.26L136.02,262.67L136.05,262.65L137.7,262.61L137.74,262.62L139.39,262.11L139.43,262.07L141.04,259.22L141.08,259.14L143.7,254.67L143.74,254.66L144.9,255.06L144.94,255.1L148.35,258.41L148.39,258.38L149.55,256.31L149.58,256.21L152.06,247.6L152.1,247.48L153.89,244.07L153.93,244.05L155.39,244.17L155.43,244.18L156.93,243.99L156.97,243.95L158.13,241.61L158.17,241.5L162.82,226.73L162.85,226.72L164.01,227.3L164.05,227.33L166.3,228.72L166.34,228.7L167.54,227.15L167.58,227.08L171.14,220.89L171.17,220.89L172.49,221.69L172.52,221.73L174.51,222.64L174.55,222.61L175.63,220.52L175.67,220.41L177.47,212.67L177.51,212.48L179.53,204.38L179.57,204.3L180.96,202.83L180.99,202.83L183.65,203.05L183.69,202.99L184.97,199.65L185,199.51L188.83,187.25L188.86,187.25L189.8,188.26L189.84,188.33L193.25,194.83L193.29,194.81L193.32,194.79L194.34,193.07L194.37,192.97L196.4,185.22L196.44,185.07L198.23,179.83L198.27,179.77L199.7,178.97L199.73,178.98L201.68,178.54L201.72,178.49L202.96,175.43L202.99,175.29L205.17,164.96L205.21,164.78L206.97,158.7L207,158.63L208.24,158.12L208.28,158.15L211.5,160.43L211.54,160.4L213.04,157.68L213.08,157.58L215.55,153.29L215.59,153.28L216.67,153.99L216.71,154.04L219.45,157.22L219.52,157.16L219.56,157.12L220.57,154.8L220.61,154.66L222.86,142.19L222.9,141.96L224.7,133.86L224.73,133.77L225.97,132.8L226.01,132.83L226.04,132.85L228.71,134.59L228.74,134.54L229.76,131.83L229.79,131.68L231.7,121.63L231.74,121.43L233.69,115.3L233.73,115.29L234.48,116.05L234.52,116.13L236.2,122.49L236.24,122.66L238.41,128.53L238.45,128.52L239.2,127.47L239.24,127.37L240.81,120.3L240.85,120.08L243.85,107.9L243.89,107.87L244.97,107.99L245.01,108.02L247,109.04L247.03,109L247.97,106.8L248.01,106.66L249.77,96.61L249.81,96.35L251.98,84.07L252.02,83.96L253.11,82.65L253.22,82.72L253.26,82.75L254.34,84.86L254.38,84.96L256.63,89.42L256.67,89.42L257.57,88.49L257.6,88.41L259.18,83.6L259.21,83.47L261.24,79.45L261.28,79.46L262.18,80.47L262.21,80.55L264.99,86.01L265.17,85.85L265.21,85.8L266.15,82.88L266.19,82.69L270.91,53.36L270.95,53.35L271.7,54.05L271.73,54.13L274.21,59.25L274.43,59.05L274.47,59L275.37,56.12L275.41,55.94L279.34,33.63L279.38,33.64L279.42,33.65L280.13,35.14L280.17,35.28L282.72,51.63L282.75,51.85L284.14,56.06L284.25,55.99L284.29,55.95L285.04,53.66L285.08,53.47L287.33,34.58L287.36,34.24L287.85,30.08" style="vector-effect: non-scaling-stroke; fill: none; stroke: rgb(44, 160, 44); stroke-opacity: 1; stroke-width: 2px; opacity: 1;"/></g><g class="points"/><g class="text"/></g></g></g><g class="xy4" transform="translate(267.15000000000003,60)" clip-path="url(#clip066a05xy4plot)"><g class="scatterlayer mlayer"><g class="trace scatter trace145a63" style="stroke-miterlimit: 2; opacity: 1;"><g class="fills"/><g class="errorbars"/><g class="lines"><path class="js-line" d="M0,133L1.65,132.25L1.69,132.2L3.04,128.92L3.07,128.79L6.11,120.48L6.15,120.5L6.18,120.52L6.97,122.05L7.01,122.17L8.85,131.8L8.88,132.03L11.28,141.41L11.32,141.43L12.14,140.92L12.18,140.86L13.57,136.96L13.61,136.83L15.67,132.2L15.7,132.18L16.75,132.64L16.79,132.68L19.75,135.76L19.79,135.74L21.03,133.91L21.06,133.83L23.95,129.29L23.99,129.3L25.15,130.63L25.19,130.7L27.92,134.59L27.96,134.58L29.01,133.39L29.05,133.32L32.16,128.15L32.2,128.17L33.17,129.65L33.21,129.75L37.37,140.93L37.41,140.91L38.38,139.56L38.42,139.47L42.54,129.54L42.58,129.55L43.59,130.54L43.63,130.61L47.08,135.93L47.11,135.92L48.27,134.48L48.31,134.41L51.84,128.6L51.87,128.61L53.11,129.69L53.15,129.74L55.92,132.52L55.96,132.52L57.72,131.53L57.76,131.51L59.26,131.4L59.29,131.43L60.53,133.41L60.57,133.49L63.9,140.18L63.94,140.17L64.88,139L64.92,138.92L66.87,132.25L66.9,132.11L68.89,127.84L68.93,127.85L69.79,128.9L69.83,128.99L73.5,138.2L73.54,138.17L73.57,138.15L74.47,136.46L74.51,136.35L78.18,125.88L78.22,125.9L78.26,125.92L79.23,127.54L79.27,127.64L82.53,134.79L82.57,134.78L83.62,133.59L83.66,133.52L86.06,130.6L86.09,130.62L87.1,132.35L87.14,132.45L90.55,141.36L90.63,141.32L90.67,141.29L91.56,139.48L91.6,139.35L93.33,131.49L93.36,131.31L95.24,126.05L95.28,126.06L95.31,126.07L96.1,127.34L96.14,127.45L98.24,136.89L98.27,137.05L99.74,140.24L99.81,140.21L99.85,140.18L100.67,138.41L100.71,138.28L104.2,124.99L104.27,125.04L104.31,125.07L105.17,127.05L105.21,127.19L108.32,137.01L108.36,137L109.26,135.59L109.29,135.49L111.99,129.22L112.14,129.32L112.18,129.35L113.12,131.62L113.15,131.76L116.53,143.98L116.6,143.93L116.64,143.9L117.46,141.83L117.5,141.68L119.11,132.17L119.15,131.93L121.17,123.93L121.21,123.93L121.89,125.11L121.92,125.23L123.2,132.16L123.24,132.42L125.26,143.01L125.3,143.08L125.78,143.32L126.08,142.89L126.12,142.81L127.1,138.58L127.13,138.35L130.32,121.92L130.36,121.94L130.39,121.95L131.11,123.51L131.14,123.65L132.76,132.62L132.79,132.85L134.59,138.84L134.63,138.83L134.67,138.82L135.42,137.37L135.45,137.24L137.14,128.93L137.18,128.75L138.64,124.61L138.79,124.66L138.83,124.69L139.58,126.54L139.61,126.69L141.08,135.59L141.11,135.86L143.29,145.43L143.33,145.43L143.96,144.43L144,144.31L145.31,136.96L145.35,136.69L148.05,122.63L148.09,122.64L148.72,123.78L148.76,123.91L150.26,132.91L150.3,133.19L152.13,143.14L152.17,143.21L152.66,143.46L152.92,143.09L152.96,143.01L154.04,137.96L154.08,137.71L157.12,121.33L157.16,121.34L157.19,121.35L157.83,122.68L157.87,122.82L159.52,132.76L159.55,133.02L161.54,141.14L161.58,141.15L162.25,140.2L162.29,140.09L163.56,134.42L163.6,134.22L165.7,127.25L165.74,127.26L166.45,128.44L166.49,128.56L168.21,137.1L168.25,137.3L170.01,142.71L170.05,142.7L170.09,142.68L170.84,141.07L170.87,140.93L172.3,132.7L172.34,132.44L174.17,123.07L174.21,123L174.7,122.74L175,123.16L175.03,123.24L176.01,127.44L176.05,127.66L178.67,141.98L178.71,142.03L179.16,142.09L179.38,141.73L179.42,141.65L180.51,136.62L180.54,136.38L183.43,121.06L183.54,121.1L183.58,121.12L184.29,123.01L184.33,123.18L185.6,131.72L185.64,132.03L188.11,145.36L188.15,145.38L188.79,144.56L188.83,144.45L190.14,137.64L190.18,137.39L192.31,125.3L192.35,125.21L193.02,124.51L193.29,124.78L193.32,124.84L194.22,127.86L194.26,128.04L197.37,141.05L197.45,141.03L197.48,141.01L198.2,139.61L198.23,139.48L199.62,132.48L199.66,132.25L201.91,123.85L201.94,123.85L202.69,125.02L202.73,125.13L204.16,131.69L204.19,131.89L206.33,138.97L206.37,138.97L207.12,138.02L207.15,137.93L208.69,132.08L208.73,131.92L210.42,127.82L210.49,127.84L210.53,127.85L211.31,129.21L211.35,129.32L212.89,136.28L212.93,136.47L214.58,142.14L214.61,142.17L215.29,141.82L215.33,141.74L215.36,141.66L216.34,137.88L216.37,137.68L219.52,122.92L219.64,122.96L219.67,122.99L220.42,124.88L220.46,125.04L221.92,133.93L221.96,134.19L223.98,142.47L224.02,142.47L224.7,141.14L224.73,141L225.93,133.95L225.97,133.68L228.56,120.41L228.59,120.42L229.23,121.74L229.27,121.88L230.43,129.13L230.47,129.43L232.75,144.91L232.79,145.02L233.43,145.8L233.73,145.45L233.77,145.37L234.78,141.06L234.82,140.83L237.85,123.39L237.89,123.35L238.38,123.37L238.56,123.68L238.6,123.76L239.58,127.77L239.61,127.99L242.72,142.54L242.76,142.52L242.8,142.5L243.55,140.79L243.59,140.64L247.33,122.45L247.45,122.49L247.48,122.52L248.23,124.33L248.27,124.48L249.81,133.11L249.84,133.33L251.76,140.19L251.79,140.19L252.51,139.2L252.54,139.1L253.89,133.24L253.93,133.05L256.03,126.48L256.07,126.49L256.82,127.86L256.85,127.98L258.28,135.12L258.32,135.34L260.08,142.84L260.11,142.89L260.68,142.93L260.86,142.63L260.9,142.55L261.8,138.97L261.84,138.76L265.1,121.76L265.25,121.85L265.29,121.89L266.04,124.18L266.07,124.37L267.65,135.46L267.69,135.74L269.26,143.93L269.3,143.98L269.71,144.1L269.97,143.67L270.01,143.58L271.06,138.12L271.1,137.84L273.91,118.47L273.94,118.41L274.36,118.39L274.58,118.84L274.62,118.94L275.67,125.07L275.71,125.38L278.59,148.16L278.63,148.25L279.04,148.63L279.38,148.14L279.42,148.04L280.39,142.85L280.43,142.56L283.84,119.06L283.91,119.1L283.95,119.13L284.63,121.2L284.66,121.39L285.98,131.77L286.01,132.13L287.85,146.16" style="vector-effect: non-scaling-stroke; fill: none; stroke: rgb(214, 39, 40); stroke-opacity: 1; stroke-width: 2px; opacity: 1;"/></g><g class="points"/><g class="text"/></g></g></g><g class="xy5" transform="translate(267.15000000000003,60)" clip-path="url(#clip066a05xy5plot)"><g class="scatterlayer mlayer"><g class="trace scatter trace6a4168" style="stroke-miterlimit: 2; opacity: 1;"><g class="fills"/><g class="errorbars"/><g class="lines"><path class="js-line" d="M0,159.6L17.02,162.62L17.05,162.63L37.07,167.39L37.11,167.4L58.62,173.91L58.66,173.93L82.46,182.64L82.49,182.66L111.92,195.22L111.95,195.24L161.47,219.12L161.5,219.14L190.33,233.42L190.36,233.44L257.94,264.53L257.98,264.54L273.46,270.94L273.49,270.95L287.85,276.61" style="vector-effect: non-scaling-stroke; fill: none; stroke: rgb(148, 103, 189); stroke-opacity: 1; stroke-width: 2px; opacity: 1;"/></g><g class="points"/><g class="text"/></g></g></g><g class="xy6" transform="translate(267.15000000000003,60)" clip-path="url(#clip066a05xy6plot)"><g class="scatterlayer mlayer"><g class="trace scatter trace1c9131" style="stroke-miterlimit: 2; opacity: 1;"><g class="fills"/><g class="errorbars"/><g class="lines"><path class="js-line" d="M0,169.65L7.35,164.63L7.38,164.57L12.18,157.4L12.22,157.4L13.87,157.93L13.91,157.95L16.72,158.94L16.75,158.93L18.93,157.73L18.97,157.7L22.56,155.99L22.6,155.98L24.96,154.08L25,154.03L30.36,147.66L30.4,147.64L34.44,144.94L34.48,144.9L37.18,143.4L37.22,143.4L39.09,144.39L39.13,144.42L42.73,146.79L42.77,146.79L44.56,145.93L44.6,145.89L50.26,142.04L50.3,142.02L52.62,140.13L52.66,140.08L58.13,133.95L58.17,133.94L63.49,132.61L63.53,132.62L65.52,133.63L65.55,133.66L69.3,136.03L69.34,136.02L70.99,134.46L71.03,134.41L74.96,129.61L75,129.6L78.6,127.92L78.63,127.87L80.62,123.98L80.66,123.9L83.24,119.53L83.28,119.51L85.04,119.12L85.08,119.12L89.84,119.31L89.88,119.31L92.31,120.54L92.35,120.57L95.88,122.86L95.91,122.86L97.71,121.74L97.75,121.7L100.75,119.57L100.78,115.79L105.25,115.76L105.28,115.72L109.52,112.18L109.56,112.19L111.77,113.55L111.8,113.57L114.35,114.39L114.39,114.39L117.01,115.14L117.05,115.17L119.38,118.18L119.41,118.24L122.04,120.59L122.07,120.58L123.65,119.76L123.69,119.72L126.5,118.24L126.53,118.24L128.41,119.65L128.45,119.69L130.88,121.08L130.92,121.07L132.64,119.84L132.68,119.8L134.85,118.62L134.89,118.64L137.25,120.38L137.29,120.41L141.04,123.1L141.08,123.11L144.64,125.56L144.67,125.6L150.18,130.76L150.22,130.77L154.23,133.14L154.27,133.18L159.93,137.83L159.97,137.85L163.45,141.03L163.49,141.08L169.15,147.57L169.19,147.59L185.08,155.74L185.12,155.73L188.9,155.36L188.94,155.38L191.79,157.96L191.83,158L194.11,159.13L194.15,159.13L199.85,158.89L199.88,158.91L202.96,159.54L202.99,159.53L207.9,158.22L207.94,158.24L213.08,160.13L213.11,160.12L216.45,160.61L216.49,160.63L220.46,162.27L220.5,162.26L223.08,160.43L223.12,160.4L225.37,159.66L225.41,159.67L230.21,160.7L230.24,160.69L233.99,159.71L234.03,159.73L236.31,161.44L236.35,161.48L239.05,162.86L239.09,162.85L241.3,161.97L241.34,161.94L244.15,161.28L244.19,161.29L248.53,161.84L248.57,161.83L253.18,159.84L253.22,159.86L258.54,161.38L258.58,161.37L261.91,161.23L261.95,161.24L266,162.46L266.04,162.44L268.21,160.61L268.25,160.57L270.95,158.11L270.98,158.12L272.86,159.26L272.9,159.28L274.77,159.82L274.81,159.8L276.31,158.3L276.34,158.24L279.38,155.24L279.42,155.25L280.8,156.49L280.84,156.54L284.29,160.69L284.33,160.69L285.64,159.59L285.68,159.54L287.85,155.71" style="vector-effect: non-scaling-stroke; fill: none; stroke: rgb(140, 86, 75); stroke-opacity: 1; stroke-width: 2px; opacity: 1;"/></g><g class="points"/><g class="text"/></g></g></g><g class="xy7" transform="translate(267.15000000000003,60)" clip-path="url(#clip066a05xy7plot)"><g class="scatterlayer mlayer"><g class="trace scatter trace259c9e" style="stroke-miterlimit: 2; opacity: 1;"><g class="fills"/><g class="errorbars"/><g class="lines"><path class="js-line" d="M0,350.25L2.25,342.26L2.29,342.19L4.42,339.56L4.46,339.53L12.18,333.59L12.22,333.6L17.32,333.64L17.35,333.62L21.14,330.21L21.18,330.17L26.54,323.75L26.57,323.7L29.98,321.08L30.02,321.06L36.02,319.85L36.06,319.86L38.72,320.78L38.75,320.8L41.45,321.26L41.49,321.25L43.33,319.85L43.36,319.8L46.25,315.57L46.29,315.52L49.81,311.43L49.85,311.4L55.88,306.79L55.92,306.78L58.62,306.83L58.66,306.84L67.13,308.35L67.16,308.33L68.96,306.7L69,306.64L71.7,301.4L71.74,301.32L74.62,296.58L74.66,296.54L77.92,294.09L77.96,294.05L83.02,290.32L83.06,290.33L85.31,291.37L85.34,291.39L88.49,292.59L88.53,292.59L94.15,292.37L94.19,292.34L95.88,289.77L95.91,289.69L98.84,282.16L98.87,282.07L101.53,278.13L101.57,278.09L104.83,273.77L104.87,273.72L107.76,270.84L107.79,270.83L109.33,271.37L109.37,271.4L114.73,276.05L114.77,276.05L120.09,276.95L120.12,276.92L121.4,274.93L121.44,274.84L123.95,266.82L123.99,266.69L126.53,260.09L126.57,260.04L128.45,258.73L128.48,258.72L130.62,257.23L130.66,257.18L135.27,251.15L135.3,251.15L136.84,252.3L136.88,252.35L139.58,254.24L139.61,254.24L141.41,253.12L141.45,253.08L143.85,251.95L143.89,251.96L147.04,252.07L147.07,252.03L148.27,249.65L148.31,249.54L150.22,241.82L150.26,241.65L153.71,229.32L153.74,229.26L155.99,227.5L156.03,227.47L157.72,225.35L157.76,225.27L161.88,217.9L161.92,217.9L163.15,218.98L163.19,219.03L166.41,222.89L166.45,222.88L167.73,221.67L167.76,221.61L174.1,210.77L174.13,210.66L175.93,203.27L175.97,203.08L179.72,188.14L179.76,188.1L180.96,187.86L180.99,187.88L184.03,189.36L184.07,189.34L185.75,187.06L185.79,187L187.78,185.17L187.81,185.18L188.9,186.39L188.94,186.46L192.39,192.4L192.42,192.38L193.4,190.7L193.44,190.59L195.35,181.78L195.39,181.57L198.08,167.96L198.12,167.83L200.63,162.19L200.67,162.12L202.81,157.23L202.84,157.12L206.22,149.58L206.26,149.57L207.27,150.48L207.3,150.55L208.95,154.94L208.99,155.05L211.54,160.17L211.58,160.18L212.74,159.66L212.78,159.62L217.84,152.48L217.87,152.4L219.22,148.03L219.26,147.87L221.06,137.01L221.1,136.74L223.68,120.19L223.72,120.04L225.26,117.08L225.3,117.09L226.31,118.21L226.34,118.28L229.31,122.4L229.34,122.38L230.62,121.08L230.65,121.02L232.57,119.52L232.6,119.55L232.64,119.57L233.69,121.51L233.73,121.62L237.55,133.86L237.66,133.8L237.7,133.78L238.53,131.93L238.56,131.79L239.88,124.23L239.91,123.95L244.45,95.12L244.49,95.03L249.4,83L249.43,82.87L251.42,78.86L251.46,78.87L252.32,80.21L252.36,80.32L254.12,88.27L254.16,88.48L256.4,98.51L256.44,98.6L257.57,99.64L257.68,99.58L257.72,99.56L258.92,97.53L258.95,97.44L264.42,83.74L264.46,83.55L266,72.68L266.04,72.34L269.37,43.91L269.41,43.75L270.5,41.52L270.68,41.63L270.72,41.67L271.66,44.04L271.7,44.18L274.58,54.84L274.62,54.89L275.52,54.99L275.59,54.92L275.63,54.88L278.11,51.79L278.29,51.97L278.33,52.01L279.3,54.82L279.34,54.98L281.07,65.59L281.1,65.85L283.13,74.07L283.16,74.06L283.8,72.74L283.84,72.6L284.89,65.38L284.93,65.02L287.85,29.52" style="vector-effect: non-scaling-stroke; fill: none; stroke: rgb(227, 119, 194); stroke-opacity: 1; stroke-width: 2px; opacity: 1;"/></g><g class="points"/><g class="text"/></g></g></g><g class="xy8" transform="translate(267.15000000000003,60)" clip-path="url(#clip066a05xy8plot)"><g class="scatterlayer mlayer"><g class="trace scatter trace36b84e" style="stroke-miterlimit: 2; opacity: 1;"><g class="fills"/><g class="errorbars"/><g class="lines"><path class="js-line" d="M0,319.2L2.21,295.27L2.25,295.03L4.98,283.05L5.02,282.92L7.12,273.56L7.16,273.33L9.3,256.79L9.33,256.44L13.64,221.38L13.68,221.39L14.32,223.08L14.36,223.27L15.85,238.07L15.89,238.6L18.4,282.51L18.44,283.19L22.41,338.55L22.45,338.88L24.66,350.63L24.7,350.69L25.26,350.87L25.52,350.52L25.56,350.44L26.42,347.15L26.46,346.93L27.85,335.21L27.89,334.8L35.53,239.64L35.57,239.37L37.33,232.39L37.37,232.39L38.01,233.58L38.04,233.72L39.02,240.22L39.05,240.58L40.55,261.19L40.59,261.84L44.23,334.2L44.26,334.85L46.85,365.11L46.89,365.32L48.42,369.47L48.46,369.47L49.25,368.6L49.29,368.52L50.75,363.03L50.79,362.83L53.48,340.41L53.52,339.97L55.88,305.83L55.92,305.21L60.64,241.52L60.68,241.29L62.07,237.12L62.18,237.17L62.22,237.2L62.97,239.16L63,239.33L64.13,247.38L64.17,247.75L66.94,290.29L66.98,291.02L72.15,377.56L72.19,377.8L73.42,381.89L73.46,381.91L74.17,381.13L74.21,381.04L75.49,375.91L75.52,375.71L77.7,361.8L77.73,361.52L79.83,341.63L79.87,341.17L82.01,308.9L82.04,308.24L86.58,242.94L86.62,242.72L87.82,239.24L87.85,239.25L87.89,239.25L88.6,240.62L88.64,240.75L89.77,247.39L89.8,247.69L91.49,266.64L91.53,267.17L98.35,379.18L98.39,379.39L99.4,382.08L99.51,382.04L99.55,382.01L100.3,380.17L100.34,380.03L103.45,359.72L103.48,359.44L105.84,337.74L105.88,337.28L107.94,304.41L107.98,303.69L112.25,238.44L112.29,238.19L113.64,233.91L113.72,233.94L113.75,233.96L114.47,235.59L114.5,235.74L115.63,242.73L115.66,243.05L117.35,262.57L117.39,263.12L119.6,304.4L119.64,305.23L124.44,394.13L124.47,394.37L125.52,397.52L125.71,397.41L125.75,397.37L126.61,394.84L126.65,394.68L132.64,358.64L132.68,358.21L134.52,329.95L134.55,329.26L139.24,256.94L139.28,256.68L140.81,249.89L140.85,249.8L142.24,248.63L142.28,248.65L143.21,250.27L143.25,250.39L144.37,256.04L144.41,256.31L145.84,271.42L145.87,271.94L148.05,310.78L148.09,311.52L150.37,349.9L150.41,350.32L152.02,359.32L152.06,359.33L152.66,358.37L152.7,358.25L154.12,350.11L154.16,349.84L157.08,330.25L157.12,330.03L159.22,313.72L159.25,313.32L161.24,284.57L161.28,283.92L164.88,236.25L164.91,236.11L165.55,235.07L165.85,235.48L165.89,235.57L166.86,240.5L166.9,240.78L168.74,258.81L168.77,259.23L173.95,321.35L173.98,321.85L176.8,347.78L176.83,347.86L177.25,348.23L177.58,347.7L177.62,347.59L178.59,341.75L178.63,341.41L180.32,320.73L180.36,320.19L183.05,285.65L183.09,285.27L189.35,232.7L189.39,232.61L189.8,232.26L190.1,232.73L190.14,232.83L191.04,238.4L191.08,238.76L193.32,275.06L193.36,275.82L197,332.13L197.03,332.38L198.53,336.9L198.57,336.9L199.47,336.05L199.51,335.98L201.68,329.99L201.72,329.85L203.56,319.25L203.59,318.93L205.21,300.09L205.24,299.54L210.23,233.23L210.27,233.12L210.83,232.47L211.13,232.84L211.16,232.92L212.06,236.79L212.1,237.02L213.79,251.58L213.83,251.97L221.92,349.38L221.96,349.47L222.37,349.73L222.63,349.29L222.67,349.19L223.53,344.32L223.57,344.01L225.11,325.83L225.15,325.3L228.03,286.73L228.07,286.33L234.33,230.97L234.37,230.85L234.89,230.1L235.19,230.53L235.23,230.63L236.09,235.91L236.13,236.27L238.23,270.73L238.26,271.53L242.16,336.69L242.2,336.93L243.59,340.8L243.62,340.78L244.49,339.44L244.52,339.34L246.55,332.6L246.58,332.45L248.38,323.5L248.42,323.24L249.96,307.95L249.99,307.46L252.24,270.04L252.28,269.37L255.2,231.79L255.24,231.61L255.99,230L256.29,230.36L256.33,230.44L257.27,234.99L257.3,235.26L259.1,253.1L259.14,253.54L263.23,305.48L263.26,306.01L267.27,351.13L267.31,351.22L267.69,351.56L268.02,350.99L268.06,350.87L268.88,345.8L268.92,345.46L270.42,325.91L270.46,325.31L274.99,266.22L275.03,265.95L280.32,229.53L280.5,229.65L280.54,229.71L281.18,232.31L281.22,232.56L282.75,252.7L282.79,253.41L285.75,319.28L285.79,320L287.85,343.61" style="vector-effect: non-scaling-stroke; fill: none; stroke: rgb(127, 127, 127); stroke-opacity: 1; stroke-width: 2px; opacity: 1;"/></g><g class="points"/><g class="text"/></g></g></g><g class="xy9" transform="translate(267.15000000000003,60)" clip-path="url(#clip066a05xy9plot)"><g class="scatterlayer mlayer"><g class="trace scatter trace92e305" style="stroke-miterlimit: 2; opacity: 1;"><g class="fills"/><g class="errorbars"/><g class="lines"><path class="js-line" d="M0,322.29L2.14,310.7L2.17,310.59L4.05,307.73L4.09,307.71L5.58,307.98L5.62,308L10.46,310.55L10.49,310.55L13.49,311.48L13.53,311.51L17.32,313.03L17.35,313.02L19.6,311.65L19.64,311.62L23.61,309.39L23.65,309.38L29.42,308.97L29.46,308.99L31.82,311.09L31.86,311.13L35.94,314.82L35.98,314.84L40.37,315.8L40.4,315.8L43.36,315.27L43.4,315.25L46.18,312.92L46.21,312.89L49.47,310.88L49.51,310.87L52.02,311.45L52.06,311.47L57.46,314.8L57.5,314.84L62.89,319.48L62.93,319.49L65.89,319.13L65.93,319.12L70.28,317.5L70.31,317.47L75.94,313.48L75.97,313.49L78.37,314.89L78.41,314.92L85.61,320.52L85.64,320.57L88.83,323.21L88.87,323.22L91.19,322.78L91.23,322.77L97.94,319.8L97.97,319.76L101.91,316.73L101.95,316.73L103.93,317.2L103.97,317.22L110.31,322.33L110.34,322.38L114.69,327.53L114.73,327.54L116.64,327.29L116.68,327.28L123.8,324.37L123.84,324.32L127.85,320.53L127.88,320.54L129.61,321.51L129.64,321.55L133.54,323.98L133.58,323.98L136.32,325.08L136.35,325.12L138.75,328.33L138.79,328.38L141.15,330.52L141.19,330.53L143.1,330.15L143.14,330.13L146.7,329.06L146.74,329.06L149.47,328.5L149.51,328.47L151.76,325.89L151.8,325.84L154.34,323.43L154.38,323.42L156.03,324.04L156.07,324.07L160.23,326.82L160.27,326.83L163.34,327.76L163.38,327.79L167.99,331.33L168.02,331.32L169.9,330.07L169.94,330.03L173.27,327.92L173.31,327.91L177.25,326.76L177.28,326.73L180.69,324.97L180.73,324.99L182.34,326.42L182.38,326.47L186.28,330.6L186.32,330.61L194.07,331.92L194.11,331.9L196.02,330.05L196.06,330L199.66,326.33L199.7,326.32L201.61,326.82L201.64,326.84L206.03,328.37L206.07,328.38L208.28,329.72L208.32,329.76L212.74,333.72L212.78,333.72L214.61,332.85L214.65,332.82L218.85,330.38L218.89,330.37L222.03,328.77L222.07,328.73L225.56,326.44L225.59,326.45L227.21,327.77L227.24,327.82L231.7,332.67L231.74,332.68L237.06,334.2L237.1,334.22L239.09,334.35L239.13,334.34L241.04,332.35L241.07,332.29L245.05,327.71L245.08,327.7L246.88,328.33L246.92,328.35L250.86,330.11L250.89,330.11L253.29,331.34L253.33,331.38L258.28,336.28L258.32,336.28L260.15,335.15L260.19,335.11L264.05,332.3L264.09,332.29L267.46,330.64L267.5,330.6L271.06,328.11L271.1,328.13L272.52,329.39L272.56,329.44L277.09,335.29L277.13,335.29L282.49,336.47L282.53,336.5L284.59,336.89L284.63,336.87L286.24,335.19L286.28,335.13L287.85,332.22" style="vector-effect: non-scaling-stroke; fill: none; stroke: rgb(188, 189, 34); stroke-opacity: 1; stroke-width: 2px; opacity: 1;"/></g><g class="points"/><g class="text"/></g></g></g></g><path class="xlines-above crisp" d="M0,0" style="fill: none;"/><path class="ylines-above crisp" d="M0,0" style="fill: none;"/><g class="overlines-above"><path class="xy2-x crisp" d="M0,0" style="fill: none;"/><path class="xy2-y crisp" d="M0,0" style="fill: none;"/><path class="xy3-x crisp" d="M0,0" style="fill: none;"/><path class="xy3-y crisp" d="M0,0" style="fill: none;"/><path class="xy4-x crisp" d="M0,0" style="fill: none;"/><path class="xy4-y crisp" d="M0,0" style="fill: none;"/><path class="xy5-x crisp" d="M0,0" style="fill: none;"/><path class="xy5-y crisp" d="M0,0" style="fill: none;"/><path class="xy6-x crisp" d="M0,0" style="fill: none;"/><path class="xy6-y crisp" d="M0,0" style="fill: none;"/><path class="xy7-x crisp" d="M0,0" style="fill: none;"/><path class="xy7-y crisp" d="M0,0" style="fill: none;"/><path class="xy8-x crisp" d="M0,0" style="fill: none;"/><path class="xy8-y crisp" d="M0,0" style="fill: none;"/><path class="xy9-x crisp" d="M0,0" style="fill: none;"/><path class="xy9-y crisp" d="M0,0" style="fill: none;"/></g><g class="xaxislayer-above"><g class="xtick"><text text-anchor="middle" x="0" y="493" transform="translate(315.12,0)" style="font-family: 'Open Sans', verdana, arial, sans-serif; font-size: 12px; fill: rgb(42, 63, 95); fill-opacity: 1; white-space: pre; opacity: 1;">2000</text></g><g class="xtick"><text text-anchor="middle" x="0" y="493" style="font-family: 'Open Sans', verdana, arial, sans-serif; font-size: 12px; fill: rgb(42, 63, 95); fill-opacity: 1; white-space: pre; opacity: 1;" transform="translate(435.06000000000006,0)">2050</text></g><g class="xtick"><text text-anchor="middle" x="0" y="493" style="font-family: 'Open Sans', verdana, arial, sans-serif; font-size: 12px; fill: rgb(42, 63, 95); fill-opacity: 1; white-space: pre; opacity: 1;" transform="translate(555,0)">2100</text></g></g><g class="yaxislayer-above"><g class="ytick"><text text-anchor="end" x="50" y="4.199999999999999" transform="translate(0,459)" style="font-family: 'Open Sans', verdana, arial, sans-serif; font-size: 12px; fill: rgb(31, 119, 180); fill-opacity: 1; white-space: pre; opacity: 1;">0</text></g><g class="ytick"><text text-anchor="end" x="50" y="4.199999999999999" style="font-family: 'Open Sans', verdana, arial, sans-serif; font-size: 12px; fill: rgb(31, 119, 180); fill-opacity: 1; white-space: pre; opacity: 1;" transform="translate(0,419.1)">1k</text></g><g class="ytick"><text text-anchor="end" x="50" y="4.199999999999999" style="font-family: 'Open Sans', verdana, arial, sans-serif; font-size: 12px; fill: rgb(31, 119, 180); fill-opacity: 1; white-space: pre; opacity: 1;" transform="translate(0,379.2)">2k</text></g><g class="ytick"><text text-anchor="end" x="50" y="4.199999999999999" style="font-family: 'Open Sans', verdana, arial, sans-serif; font-size: 12px; fill: rgb(31, 119, 180); fill-opacity: 1; white-space: pre; opacity: 1;" transform="translate(0,339.3)">3k</text></g><g class="ytick"><text text-anchor="end" x="50" y="4.199999999999999" style="font-family: 'Open Sans', verdana, arial, sans-serif; font-size: 12px; fill: rgb(31, 119, 180); fill-opacity: 1; white-space: pre; opacity: 1;" transform="translate(0,299.4)">4k</text></g><g class="ytick"><text text-anchor="end" x="50" y="4.199999999999999" style="font-family: 'Open Sans', verdana, arial, sans-serif; font-size: 12px; fill: rgb(31, 119, 180); fill-opacity: 1; white-space: pre; opacity: 1;" transform="translate(0,259.5)">5k</text></g><g class="ytick"><text text-anchor="end" x="50" y="4.199999999999999" style="font-family: 'Open Sans', verdana, arial, sans-serif; font-size: 12px; fill: rgb(31, 119, 180); fill-opacity: 1; white-space: pre; opacity: 1;" transform="translate(0,219.6)">6k</text></g><g class="ytick"><text text-anchor="end" x="50" y="4.199999999999999" style="font-family: 'Open Sans', verdana, arial, sans-serif; font-size: 12px; fill: rgb(31, 119, 180); fill-opacity: 1; white-space: pre; opacity: 1;" transform="translate(0,179.7)">7k</text></g><g class="ytick"><text text-anchor="end" x="50" y="4.199999999999999" style="font-family: 'Open Sans', verdana, arial, sans-serif; font-size: 12px; fill: rgb(31, 119, 180); fill-opacity: 1; white-space: pre; opacity: 1;" transform="translate(0,139.8)">8k</text></g><g class="ytick"><text text-anchor="end" x="50" y="4.199999999999999" style="font-family: 'Open Sans', verdana, arial, sans-serif; font-size: 12px; fill: rgb(31, 119, 180); fill-opacity: 1; white-space: pre; opacity: 1;" transform="translate(0,99.9)">9k</text></g><g class="ytick"><text text-anchor="end" x="50" y="4.199999999999999" style="font-family: 'Open Sans', verdana, arial, sans-serif; font-size: 12px; fill: rgb(31, 119, 180); fill-opacity: 1; white-space: pre; opacity: 1;" transform="translate(0,60)">10k</text></g></g><g class="overaxes-above"><g class="xy2-x"/><g class="xy2-y"><g class="y2tick"><text text-anchor="end" x="75.25" y="4.199999999999999" transform="translate(0,459)" style="font-family: 'Open Sans', verdana, arial, sans-serif; font-size: 12px; fill: rgb(255, 127, 14); fill-opacity: 1; white-space: pre; opacity: 1;">0</text></g><g class="y2tick"><text text-anchor="end" x="75.25" y="4.199999999999999" style="font-family: 'Open Sans', verdana, arial, sans-serif; font-size: 12px; fill: rgb(255, 127, 14); fill-opacity: 1; white-space: pre; opacity: 1;" transform="translate(0,375.88)">0.5</text></g><g class="y2tick"><text text-anchor="end" x="75.25" y="4.199999999999999" style="font-family: 'Open Sans', verdana, arial, sans-serif; font-size: 12px; fill: rgb(255, 127, 14); fill-opacity: 1; white-space: pre; opacity: 1;" transform="translate(0,292.75)">1</text></g><g class="y2tick"><text text-anchor="end" x="75.25" y="4.199999999999999" style="font-family: 'Open Sans', verdana, arial, sans-serif; font-size: 12px; fill: rgb(255, 127, 14); fill-opacity: 1; white-space: pre; opacity: 1;" transform="translate(0,209.63)">1.5</text></g><g class="y2tick"><text text-anchor="end" x="75.25" y="4.199999999999999" style="font-family: 'Open Sans', verdana, arial, sans-serif; font-size: 12px; fill: rgb(255, 127, 14); fill-opacity: 1; white-space: pre; opacity: 1;" transform="translate(0,126.5)">2</text></g></g><g class="xy3-x"/><g class="xy3-y"><g class="y3tick"><text text-anchor="end" x="100.5" y="4.199999999999999" transform="translate(0,459)" style="font-family: 'Open Sans', verdana, arial, sans-serif; font-size: 12px; fill: rgb(44, 160, 44); fill-opacity: 1; white-space: pre; opacity: 1;">0</text></g><g class="y3tick"><text text-anchor="end" x="100.5" y="4.199999999999999" style="font-family: 'Open Sans', verdana, arial, sans-serif; font-size: 12px; fill: rgb(44, 160, 44); fill-opacity: 1; white-space: pre; opacity: 1;" transform="translate(0,392.5)">10</text></g><g class="y3tick"><text text-anchor="end" x="100.5" y="4.199999999999999" style="font-family: 'Open Sans', verdana, arial, sans-serif; font-size: 12px; fill: rgb(44, 160, 44); fill-opacity: 1; white-space: pre; opacity: 1;" transform="translate(0,326)">20</text></g><g class="y3tick"><text text-anchor="end" x="100.5" y="4.199999999999999" style="font-family: 'Open Sans', verdana, arial, sans-serif; font-size: 12px; fill: rgb(44, 160, 44); fill-opacity: 1; white-space: pre; opacity: 1;" transform="translate(0,259.5)">30</text></g><g class="y3tick"><text text-anchor="end" x="100.5" y="4.199999999999999" style="font-family: 'Open Sans', verdana, arial, sans-serif; font-size: 12px; fill: rgb(44, 160, 44); fill-opacity: 1; white-space: pre; opacity: 1;" transform="translate(0,193)">40</text></g><g class="y3tick"><text text-anchor="end" x="100.5" y="4.199999999999999" style="font-family: 'Open Sans', verdana, arial, sans-serif; font-size: 12px; fill: rgb(44, 160, 44); fill-opacity: 1; white-space: pre; opacity: 1;" transform="translate(0,126.5)">50</text></g><g class="y3tick"><text text-anchor="end" x="100.5" y="4.199999999999999" style="font-family: 'Open Sans', verdana, arial, sans-serif; font-size: 12px; fill: rgb(44, 160, 44); fill-opacity: 1; white-space: pre; opacity: 1;" transform="translate(0,60)">60</text></g></g><g class="xy4-x"/><g class="xy4-y"><g class="y4tick"><text text-anchor="end" x="125.75000000000001" y="4.199999999999999" transform="translate(0,459)" style="font-family: 'Open Sans', verdana, arial, sans-serif; font-size: 12px; fill: rgb(214, 39, 40); fill-opacity: 1; white-space: pre; opacity: 1;">0</text></g><g class="y4tick"><text text-anchor="end" x="125.75000000000001" y="4.199999999999999" style="font-family: 'Open Sans', verdana, arial, sans-serif; font-size: 12px; fill: rgb(214, 39, 40); fill-opacity: 1; white-space: pre; opacity: 1;" transform="translate(0,405.8)">0.2</text></g><g class="y4tick"><text text-anchor="end" x="125.75000000000001" y="4.199999999999999" style="font-family: 'Open Sans', verdana, arial, sans-serif; font-size: 12px; fill: rgb(214, 39, 40); fill-opacity: 1; white-space: pre; opacity: 1;" transform="translate(0,352.6)">0.4</text></g><g class="y4tick"><text text-anchor="end" x="125.75000000000001" y="4.199999999999999" style="font-family: 'Open Sans', verdana, arial, sans-serif; font-size: 12px; fill: rgb(214, 39, 40); fill-opacity: 1; white-space: pre; opacity: 1;" transform="translate(0,299.4)">0.6</text></g><g class="y4tick"><text text-anchor="end" x="125.75000000000001" y="4.199999999999999" style="font-family: 'Open Sans', verdana, arial, sans-serif; font-size: 12px; fill: rgb(214, 39, 40); fill-opacity: 1; white-space: pre; opacity: 1;" transform="translate(0,246.2)">0.8</text></g><g class="y4tick"><text text-anchor="end" x="125.75000000000001" y="4.199999999999999" style="font-family: 'Open Sans', verdana, arial, sans-serif; font-size: 12px; fill: rgb(214, 39, 40); fill-opacity: 1; white-space: pre; opacity: 1;" transform="translate(0,193)">1</text></g><g class="y4tick"><text text-anchor="end" x="125.75000000000001" y="4.199999999999999" style="font-family: 'Open Sans', verdana, arial, sans-serif; font-size: 12px; fill: rgb(214, 39, 40); fill-opacity: 1; white-space: pre; opacity: 1;" transform="translate(0,139.8)">1.2</text></g><g class="y4tick"><text text-anchor="end" x="125.75000000000001" y="4.199999999999999" style="font-family: 'Open Sans', verdana, arial, sans-serif; font-size: 12px; fill: rgb(214, 39, 40); fill-opacity: 1; white-space: pre; opacity: 1;" transform="translate(0,86.6)">1.4</text></g></g><g class="xy5-x"/><g class="xy5-y"><g class="y5tick"><text text-anchor="end" x="151" y="4.199999999999999" transform="translate(0,459)" style="font-family: 'Open Sans', verdana, arial, sans-serif; font-size: 12px; fill: rgb(148, 103, 189); fill-opacity: 1; white-space: pre; opacity: 1;">0</text></g><g class="y5tick"><text text-anchor="end" x="151" y="4.199999999999999" style="font-family: 'Open Sans', verdana, arial, sans-serif; font-size: 12px; fill: rgb(148, 103, 189); fill-opacity: 1; white-space: pre; opacity: 1;" transform="translate(0,359.25)">5</text></g><g class="y5tick"><text text-anchor="end" x="151" y="4.199999999999999" style="font-family: 'Open Sans', verdana, arial, sans-serif; font-size: 12px; fill: rgb(148, 103, 189); fill-opacity: 1; white-space: pre; opacity: 1;" transform="translate(0,259.5)">10</text></g><g class="y5tick"><text text-anchor="end" x="151" y="4.199999999999999" style="font-family: 'Open Sans', verdana, arial, sans-serif; font-size: 12px; fill: rgb(148, 103, 189); fill-opacity: 1; white-space: pre; opacity: 1;" transform="translate(0,159.75)">15</text></g><g class="y5tick"><text text-anchor="end" x="151" y="4.199999999999999" style="font-family: 'Open Sans', verdana, arial, sans-serif; font-size: 12px; fill: rgb(148, 103, 189); fill-opacity: 1; white-space: pre; opacity: 1;" transform="translate(0,60)">20</text></g></g><g class="xy6-x"/><g class="xy6-y"><g class="y6tick"><text text-anchor="end" x="176.25" y="4.199999999999999" transform="translate(0,459)" style="font-family: 'Open Sans', verdana, arial, sans-serif; font-size: 12px; fill: rgb(140, 86, 75); fill-opacity: 1; white-space: pre; opacity: 1;">0</text></g><g class="y6tick"><text text-anchor="end" x="176.25" y="4.199999999999999" style="font-family: 'Open Sans', verdana, arial, sans-serif; font-size: 12px; fill: rgb(140, 86, 75); fill-opacity: 1; white-space: pre; opacity: 1;" transform="translate(0,392.5)">0.2</text></g><g class="y6tick"><text text-anchor="end" x="176.25" y="4.199999999999999" style="font-family: 'Open Sans', verdana, arial, sans-serif; font-size: 12px; fill: rgb(140, 86, 75); fill-opacity: 1; white-space: pre; opacity: 1;" transform="translate(0,326)">0.4</text></g><g class="y6tick"><text text-anchor="end" x="176.25" y="4.199999999999999" style="font-family: 'Open Sans', verdana, arial, sans-serif; font-size: 12px; fill: rgb(140, 86, 75); fill-opacity: 1; white-space: pre; opacity: 1;" transform="translate(0,259.5)">0.6</text></g><g class="y6tick"><text text-anchor="end" x="176.25" y="4.199999999999999" style="font-family: 'Open Sans', verdana, arial, sans-serif; font-size: 12px; fill: rgb(140, 86, 75); fill-opacity: 1; white-space: pre; opacity: 1;" transform="translate(0,193)">0.8</text></g><g class="y6tick"><text text-anchor="end" x="176.25" y="4.199999999999999" style="font-family: 'Open Sans', verdana, arial, sans-serif; font-size: 12px; fill: rgb(140, 86, 75); fill-opacity: 1; white-space: pre; opacity: 1;" transform="translate(0,126.5)">1</text></g><g class="y6tick"><text text-anchor="end" x="176.25" y="4.199999999999999" style="font-family: 'Open Sans', verdana, arial, sans-serif; font-size: 12px; fill: rgb(140, 86, 75); fill-opacity: 1; white-space: pre; opacity: 1;" transform="translate(0,60)">1.2</text></g></g><g class="xy7-x"/><g class="xy7-y"><g class="y7tick"><text text-anchor="end" x="201.50000000000003" y="4.199999999999999" transform="translate(0,459)" style="font-family: 'Open Sans', verdana, arial, sans-serif; font-size: 12px; fill: rgb(227, 119, 194); fill-opacity: 1; white-space: pre; opacity: 1;">0</text></g><g class="y7tick"><text text-anchor="end" x="201.50000000000003" y="4.199999999999999" style="font-family: 'Open Sans', verdana, arial, sans-serif; font-size: 12px; fill: rgb(227, 119, 194); fill-opacity: 1; white-space: pre; opacity: 1;" transform="translate(0,379.2)">2</text></g><g class="y7tick"><text text-anchor="end" x="201.50000000000003" y="4.199999999999999" style="font-family: 'Open Sans', verdana, arial, sans-serif; font-size: 12px; fill: rgb(227, 119, 194); fill-opacity: 1; white-space: pre; opacity: 1;" transform="translate(0,299.4)">4</text></g><g class="y7tick"><text text-anchor="end" x="201.50000000000003" y="4.199999999999999" style="font-family: 'Open Sans', verdana, arial, sans-serif; font-size: 12px; fill: rgb(227, 119, 194); fill-opacity: 1; white-space: pre; opacity: 1;" transform="translate(0,219.6)">6</text></g><g class="y7tick"><text text-anchor="end" x="201.50000000000003" y="4.199999999999999" style="font-family: 'Open Sans', verdana, arial, sans-serif; font-size: 12px; fill: rgb(227, 119, 194); fill-opacity: 1; white-space: pre; opacity: 1;" transform="translate(0,139.8)">8</text></g><g class="y7tick"><text text-anchor="end" x="201.50000000000003" y="4.199999999999999" style="font-family: 'Open Sans', verdana, arial, sans-serif; font-size: 12px; fill: rgb(227, 119, 194); fill-opacity: 1; white-space: pre; opacity: 1;" transform="translate(0,60)">10</text></g></g><g class="xy8-x"/><g class="xy8-y"><g class="y8tick"><text text-anchor="end" x="226.75000000000003" y="4.199999999999999" transform="translate(0,459)" style="font-family: 'Open Sans', verdana, arial, sans-serif; font-size: 12px; fill: rgb(127, 127, 127); fill-opacity: 1; white-space: pre; opacity: 1;">0</text></g><g class="y8tick"><text text-anchor="end" x="226.75000000000003" y="4.199999999999999" style="font-family: 'Open Sans', verdana, arial, sans-serif; font-size: 12px; fill: rgb(127, 127, 127); fill-opacity: 1; white-space: pre; opacity: 1;" transform="translate(0,379.2)">0.02</text></g><g class="y8tick"><text text-anchor="end" x="226.75000000000003" y="4.199999999999999" style="font-family: 'Open Sans', verdana, arial, sans-serif; font-size: 12px; fill: rgb(127, 127, 127); fill-opacity: 1; white-space: pre; opacity: 1;" transform="translate(0,299.4)">0.04</text></g><g class="y8tick"><text text-anchor="end" x="226.75000000000003" y="4.199999999999999" style="font-family: 'Open Sans', verdana, arial, sans-serif; font-size: 12px; fill: rgb(127, 127, 127); fill-opacity: 1; white-space: pre; opacity: 1;" transform="translate(0,219.6)">0.06</text></g><g class="y8tick"><text text-anchor="end" x="226.75000000000003" y="4.199999999999999" style="font-family: 'Open Sans', verdana, arial, sans-serif; font-size: 12px; fill: rgb(127, 127, 127); fill-opacity: 1; white-space: pre; opacity: 1;" transform="translate(0,139.8)">0.08</text></g><g class="y8tick"><text text-anchor="end" x="226.75000000000003" y="4.199999999999999" style="font-family: 'Open Sans', verdana, arial, sans-serif; font-size: 12px; fill: rgb(127, 127, 127); fill-opacity: 1; white-space: pre; opacity: 1;" transform="translate(0,60)">0.1</text></g></g><g class="xy9-x"/><g class="xy9-y"><g class="y9tick"><text text-anchor="end" x="252" y="4.199999999999999" transform="translate(0,459)" style="font-family: 'Open Sans', verdana, arial, sans-serif; font-size: 12px; fill: rgb(188, 189, 34); fill-opacity: 1; white-space: pre; opacity: 1;">0</text></g><g class="y9tick"><text text-anchor="end" x="252" y="4.199999999999999" style="font-family: 'Open Sans', verdana, arial, sans-serif; font-size: 12px; fill: rgb(188, 189, 34); fill-opacity: 1; white-space: pre; opacity: 1;" transform="translate(0,379.2)">0.2</text></g><g class="y9tick"><text text-anchor="end" x="252" y="4.199999999999999" style="font-family: 'Open Sans', verdana, arial, sans-serif; font-size: 12px; fill: rgb(188, 189, 34); fill-opacity: 1; white-space: pre; opacity: 1;" transform="translate(0,299.4)">0.4</text></g><g class="y9tick"><text text-anchor="end" x="252" y="4.199999999999999" style="font-family: 'Open Sans', verdana, arial, sans-serif; font-size: 12px; fill: rgb(188, 189, 34); fill-opacity: 1; white-space: pre; opacity: 1;" transform="translate(0,219.6)">0.6</text></g><g class="y9tick"><text text-anchor="end" x="252" y="4.199999999999999" style="font-family: 'Open Sans', verdana, arial, sans-serif; font-size: 12px; fill: rgb(188, 189, 34); fill-opacity: 1; white-space: pre; opacity: 1;" transform="translate(0,139.8)">0.8</text></g><g class="y9tick"><text text-anchor="end" x="252" y="4.199999999999999" style="font-family: 'Open Sans', verdana, arial, sans-serif; font-size: 12px; fill: rgb(188, 189, 34); fill-opacity: 1; white-space: pre; opacity: 1;" transform="translate(0,60)">1</text></g></g></g></g><g class="subplot xy2"/><g class="subplot xy3"/><g class="subplot xy4"/><g class="subplot xy5"/><g class="subplot xy6"/><g class="subplot xy7"/><g class="subplot xy8"/><g class="subplot xy9"/></g><g class="polarlayer"/><g class="ternarylayer"/><g class="geolayer"/><g class="funnelarealayer"/><g class="pielayer"/><g class="iciclelayer"/><g class="treemaplayer"/><g class="sunburstlayer"/><g class="glimages"/><defs id="topdefs-066a05"><g class="clips"/><clipPath id="legend066a05"><rect width="231" height="181" x="0" y="0"/></clipPath></defs><g class="layer-above"><g class="imagelayer"/><g class="shapelayer"/></g><g class="infolayer"><g class="legend" pointer-events="all" transform="translate(565.1,60)"><rect class="bg" shape-rendering="crispEdges" width="231" height="181" x="0" y="0" style="stroke: rgb(68, 68, 68); stroke-opacity: 1; fill: rgb(255, 255, 255); fill-opacity: 1; stroke-width: 0px;"/><g class="scrollbox" transform="" clip-path="url(#legend066a05)"><g class="groups"><g class="traces" transform="translate(0,14.5)" style="opacity: 1;"><text class="legendtext" text-anchor="start" x="40" y="4.680000000000001" style="font-family: 'Open Sans', verdana, arial, sans-serif; font-size: 12px; fill: rgb(42, 63, 95); fill-opacity: 1; white-space: pre;">Population Mp</text><g class="layers" style="opacity: 1;"><g class="legendfill"/><g class="legendlines"><path class="js-line" d="M5,0h30" style="fill: none; stroke: rgb(31, 119, 180); stroke-opacity: 1; stroke-width: 2px;"/></g><g class="legendsymbols"><g class="legendpoints"/></g></g><rect class="legendtoggle" x="0" y="-9.5" width="225.41250610351562" height="19" style="fill: rgb(0, 0, 0); fill-opacity: 0;"/></g><g class="traces" transform="translate(0,33.5)" style="opacity: 1;"><text class="legendtext" text-anchor="start" x="40" y="4.680000000000001" style="font-family: 'Open Sans', verdana, arial, sans-serif; font-size: 12px; fill: rgb(42, 63, 95); fill-opacity: 1; white-space: pre;">Awerage WellBeing Index</text><g class="layers" style="opacity: 1;"><g class="legendfill"/><g class="legendlines"><path class="js-line" d="M5,0h30" style="fill: none; stroke: rgb(255, 127, 14); stroke-opacity: 1; stroke-width: 2px;"/></g><g class="legendsymbols"><g class="legendpoints"/></g></g><rect class="legendtoggle" x="0" y="-9.5" width="225.41250610351562" height="19" style="fill: rgb(0, 0, 0); fill-opacity: 0;"/></g><g class="traces" transform="translate(0,52.5)" style="opacity: 1;"><text class="legendtext" text-anchor="start" x="40" y="4.680000000000001" style="font-family: 'Open Sans', verdana, arial, sans-serif; font-size: 12px; fill: rgb(42, 63, 95); fill-opacity: 1; white-space: pre;">GDP per person</text><g class="layers" style="opacity: 1;"><g class="legendfill"/><g class="legendlines"><path class="js-line" d="M5,0h30" style="fill: none; stroke: rgb(44, 160, 44); stroke-opacity: 1; stroke-width: 2px;"/></g><g class="legendsymbols"><g class="legendpoints"/></g></g><rect class="legendtoggle" x="0" y="-9.5" width="225.41250610351562" height="19" style="fill: rgb(0, 0, 0); fill-opacity: 0;"/></g><g class="traces" transform="translate(0,71.5)" style="opacity: 1;"><text class="legendtext" text-anchor="start" x="40" y="4.680000000000001" style="font-family: 'Open Sans', verdana, arial, sans-serif; font-size: 12px; fill: rgb(42, 63, 95); fill-opacity: 1; white-space: pre;">Perceived relative inventory</text><g class="layers" style="opacity: 1;"><g class="legendfill"/><g class="legendlines"><path class="js-line" d="M5,0h30" style="fill: none; stroke: rgb(214, 39, 40); stroke-opacity: 1; stroke-width: 2px;"/></g><g class="legendsymbols"><g class="legendpoints"/></g></g><rect class="legendtoggle" x="0" y="-9.5" width="225.41250610351562" height="19" style="fill: rgb(0, 0, 0); fill-opacity: 0;"/></g><g class="traces" transform="translate(0,90.5)" style="opacity: 1;"><text class="legendtext" text-anchor="start" x="40" y="4.680000000000001" style="font-family: 'Open Sans', verdana, arial, sans-serif; font-size: 12px; fill: rgb(42, 63, 95); fill-opacity: 1; white-space: pre;">Ice and snow cover excl G&amp;A Mkm</text><g class="layers" style="opacity: 1;"><g class="legendfill"/><g class="legendlines"><path class="js-line" d="M5,0h30" style="fill: none; stroke: rgb(148, 103, 189); stroke-opacity: 1; stroke-width: 2px;"/></g><g class="legendsymbols"><g class="legendpoints"/></g></g><rect class="legendtoggle" x="0" y="-9.5" width="225.41250610351562" height="19" style="fill: rgb(0, 0, 0); fill-opacity: 0;"/></g><g class="traces" transform="translate(0,109.5)" style="opacity: 1;"><text class="legendtext" text-anchor="start" x="40" y="4.680000000000001" style="font-family: 'Open Sans', verdana, arial, sans-serif; font-size: 12px; fill: rgb(42, 63, 95); fill-opacity: 1; white-space: pre;">CRUSP</text><g class="layers" style="opacity: 1;"><g class="legendfill"/><g class="legendlines"><path class="js-line" d="M5,0h30" style="fill: none; stroke: rgb(140, 86, 75); stroke-opacity: 1; stroke-width: 2px;"/></g><g class="legendsymbols"><g class="legendpoints"/></g></g><rect class="legendtoggle" x="0" y="-9.5" width="225.41250610351562" height="19" style="fill: rgb(0, 0, 0); fill-opacity: 0;"/></g><g class="traces" transform="translate(0,128.5)" style="opacity: 1;"><text class="legendtext" text-anchor="start" x="40" y="4.680000000000001" style="font-family: 'Open Sans', verdana, arial, sans-serif; font-size: 12px; fill: rgb(42, 63, 95); fill-opacity: 1; white-space: pre;">Public Spending per person</text><g class="layers" style="opacity: 1;"><g class="legendfill"/><g class="legendlines"><path class="js-line" d="M5,0h30" style="fill: none; stroke: rgb(227, 119, 194); stroke-opacity: 1; stroke-width: 2px;"/></g><g class="legendsymbols"><g class="legendpoints"/></g></g><rect class="legendtoggle" x="0" y="-9.5" width="225.41250610351562" height="19" style="fill: rgb(0, 0, 0); fill-opacity: 0;"/></g><g class="traces" transform="translate(0,147.5)" style="opacity: 1;"><text class="legendtext" text-anchor="start" x="40" y="4.680000000000001" style="font-family: 'Open Sans', verdana, arial, sans-serif; font-size: 12px; fill: rgb(42, 63, 95); fill-opacity: 1; white-space: pre;">Central bank signal rate</text><g class="layers" style="opacity: 1;"><g class="legendfill"/><g class="legendlines"><path class="js-line" d="M5,0h30" style="fill: none; stroke: rgb(127, 127, 127); stroke-opacity: 1; stroke-width: 2px;"/></g><g class="legendsymbols"><g class="legendpoints"/></g></g><rect class="legendtoggle" x="0" y="-9.5" width="225.41250610351562" height="19" style="fill: rgb(0, 0, 0); fill-opacity: 0;"/></g><g class="traces" transform="translate(0,166.5)" style="opacity: 1;"><text class="legendtext" text-anchor="start" x="40" y="4.680000000000001" style="font-family: 'Open Sans', verdana, arial, sans-serif; font-size: 12px; fill: rgb(42, 63, 95); fill-opacity: 1; white-space: pre;">Government share of GDP</text><g class="layers" style="opacity: 1;"><g class="legendfill"/><g class="legendlines"><path class="js-line" d="M5,0h30" style="fill: none; stroke: rgb(188, 189, 34); stroke-opacity: 1; stroke-width: 2px;"/></g><g class="legendsymbols"><g class="legendpoints"/></g></g><rect class="legendtoggle" x="0" y="-9.5" width="225.41250610351562" height="19" style="fill: rgb(0, 0, 0); fill-opacity: 0;"/></g></g></g><rect class="scrollbar" rx="20" ry="3" width="0" height="0" x="0" y="0" style="fill: rgb(128, 139, 164); fill-opacity: 1;"/></g><g class="g-gtitle"><text class="gtitle" x="404" y="30" text-anchor="middle" dy="0em" style="font-family: 'Open Sans', verdana, arial, sans-serif; font-size: 17px; fill: rgb(42, 63, 95); opacity: 1; font-weight: normal; white-space: pre;">Test plot</text></g><g class="g-xtitle"/><g class="g-ytitle"/><g class="g-y2title"/><g class="g-y3title"/><g class="g-y4title"/><g class="g-y5title"/><g class="g-y6title"/><g class="g-y7title"/><g class="g-y8title"/><g class="g-y9title"/></g></svg>